<svg width="1440" height="695" viewBox="0 0 1440 695" fill="none" xmlns="http://www.w3.org/2000/svg">
<path d="M-33.2026 61.4452C-52.0029 23.1839 25.5202 10.7817 152.34 10.6818C157.536 4.10346 160.47 0 160.47 0L156.928 10.6835C442.617 11.1154 971.085 72.0254 1219.41 42.6681C1580.33 0 1333.29 490.953 1416.02 471.602C1498.74 452.25 1361.87 713.495 1091.81 693.955C821.757 674.415 376.915 409.054 376.915 486.857C376.915 564.66 -33.2026 584.11 -33.2026 584.11L156.928 10.6835C155.391 10.6812 153.862 10.6806 152.34 10.6818C122.594 48.341 18.7168 167.108 -33.2026 61.4452Z" fill="#FFF2B3" fill-opacity="0.34"/>
</svg>